<svg width="600" height="350" viewBox="0 0 600 350" xmlns="http://www.w3.org/2000/svg">
  <defs>
    <filter id="shadow" x="-50%" y="-50%" width="200%" height="200%">
      <feDropShadow dx="0" dy="2" stdDeviation="3" flood-opacity="0.15"/>
    </filter>
  </defs>
  
  <style>
    .title { font: 600 22px 'Segoe UI', Helvetica, Arial, sans-serif; fill: #0969da; }
    .legend-text { font: 400 14px 'Segoe UI', Helvetica, Arial, sans-serif; fill: #1f2328; }
    .update-time { font: 400 11px 'Segoe UI', Helvetica, Arial, sans-serif; fill: #656d76; }
  </style>
  
  <!-- 背景 -->
  <rect width="600" height="350" fill="#ffffff" rx="6"/>
  
  <!-- 标题 -->
  <text x="300" y="45" class="title" text-anchor="middle">Top Languages by Repo</text>
  
  <!-- 图例 - 左侧 -->
  <g>
    <g transform="translate(70,110)">  <rect x="0" y="0" width="15" height="15" fill="#da5b0b" rx="2"/>  <text x="25" y="12" class="legend-text">Jupyter Notebook</text></g><g transform="translate(70,138)">  <rect x="0" y="0" width="15" height="15" fill="#3572A5" rx="2"/>  <text x="25" y="12" class="legend-text">Python</text></g><g transform="translate(70,166)">  <rect x="0" y="0" width="15" height="15" fill="#f34b7d" rx="2"/>  <text x="25" y="12" class="legend-text">C++</text></g><g transform="translate(70,194)">  <rect x="0" y="0" width="15" height="15" fill="#f1e05a" rx="2"/>  <text x="25" y="12" class="legend-text">JavaScript</text></g><g transform="translate(70,222)">  <rect x="0" y="0" width="15" height="15" fill="#e34c26" rx="2"/>  <text x="25" y="12" class="legend-text">HTML</text></g><g transform="translate(70,250)">  <rect x="0" y="0" width="15" height="15" fill="#41b883" rx="2"/>  <text x="25" y="12" class="legend-text">Vue</text></g><g transform="translate(70,278)">  <rect x="0" y="0" width="15" height="15" fill="#007acc" rx="2"/>  <text x="25" y="12" class="legend-text">TypeScript</text></g><g transform="translate(70,306)">  <rect x="0" y="0" width="15" height="15" fill="#555555" rx="2"/>  <text x="25" y="12" class="legend-text">C</text></g>
  </g>
  
  <!-- 环形图 - 右侧 -->
  <g filter="url(#shadow)">
    <path d="M 450.0 80.0 A 100 100 0 1 0 388.86092291329123 259.13288351239 L 419.4304614566456 219.566441756195 A 50 50 0 1 1 450.0 130.0 Z" fill="#da5b0b" opacity="0.95" stroke="#ffffff" stroke-width="2"/><path d="M 388.86092291329123 259.13288351239 A 100 100 0 0 0 383.4517274453983 105.35867485100192 L 416.72586372269916 142.67933742550096 A 50 50 0 0 1 419.4304614566456 219.566441756195 Z" fill="#3572A5" opacity="0.95" stroke="#ffffff" stroke-width="2"/><path d="M 383.4517274453983 105.35867485100192 A 100 100 0 0 0 419.2177784575678 84.85561058626408 L 434.6088892287839 132.42780529313205 A 50 50 0 0 1 416.72586372269916 142.67933742550096 Z" fill="#f34b7d" opacity="0.95" stroke="#ffffff" stroke-width="2"/><path d="M 419.2177784575678 84.85561058626408 A 100 100 0 0 0 428.7285859420583 82.28855264619399 L 439.36429297102916 131.144276323097 A 50 50 0 0 1 434.6088892287839 132.42780529313205 Z" fill="#f1e05a" opacity="0.95" stroke="#ffffff" stroke-width="2"/><path d="M 428.7285859420583 82.28855264619399 A 100 100 0 0 0 436.28808696164594 80.94454360900346 L 443.144043480823 130.47227180450173 A 50 50 0 0 1 439.36429297102916 131.144276323097 Z" fill="#e34c26" opacity="0.95" stroke="#ffffff" stroke-width="2"/><path d="M 436.28808696164594 80.94454360900346 A 100 100 0 0 0 441.1950808553783 80.38838722891454 L 445.5975404276891 130.19419361445728 A 50 50 0 0 1 443.144043480823 130.47227180450173 Z" fill="#41b883" opacity="0.95" stroke="#ffffff" stroke-width="2"/><path d="M 441.1950808553783 80.38838722891454 A 100 100 0 0 0 444.54343313570826 80.14898158728919 L 447.2717165678541 130.0744907936446 A 50 50 0 0 1 445.5975404276891 130.19419361445728 Z" fill="#007acc" opacity="0.95" stroke="#ffffff" stroke-width="2"/><path d="M 444.54343313570826 80.14898158728919 A 100 100 0 0 0 446.8588203548425 80.04934722355813 L 448.4294101774213 130.02467361177906 A 50 50 0 0 1 447.2717165678541 130.0744907936446 Z" fill="#555555" opacity="0.95" stroke="#ffffff" stroke-width="2"/>
  </g>
  
  <!-- 更新时间 -->
  <text x="300" y="330" class="update-time" text-anchor="middle">
    Updated: 2026-02-10
  </text>
</svg>