<svg width="500" height="250" viewBox="0 0 500 250" xmlns="http://www.w3.org/2000/svg">
  <style>
    .title { font: 600 20px 'Segoe UI', Helvetica, Arial, sans-serif; fill: #0366d6; }
    .legend-text { font: 400 14px 'Segoe UI', Helvetica, Arial, sans-serif; fill: #24292e; }
    .update-time { font: 400 12px 'Segoe UI', Helvetica, Arial, sans-serif; fill: #6a737d; }
  </style>
  
  <!-- 标题 -->
  <text x="250" y="30" class="title" text-anchor="middle">Top Languages</text>
  
  <!-- 环形图 -->
  <g transform="translate(0,0)">
    <path d="M 320.0 50.0 L 320.0 90.0 A 40 40 0 0 1 331.9745249189343 168.16557025600196 L 343.94904983786864 206.3311405120039 A 80 80 0 0 0 320.0 50.0 Z" fill="#3572A5" opacity="0.9" stroke="#ffffff" stroke-width="1"/><path d="M 343.94904983786864 206.3311405120039 L 331.9745249189343 168.16557025600196 A 40 40 0 0 1 284.08781841717035 147.6157660623054 L 248.17563683434068 165.23153212461077 A 80 80 0 0 0 343.94904983786864 206.3311405120039 Z" fill="#da5b0b" opacity="0.9" stroke="#ffffff" stroke-width="1"/><path d="M 248.17563683434068 165.23153212461077 L 284.08781841717035 147.6157660623054 A 40 40 0 0 1 280.05133971315786 132.02596675354854 L 240.10267942631577 134.0519335070971 A 80 80 0 0 0 248.17563683434068 165.23153212461077 Z" fill="#f34b7d" opacity="0.9" stroke="#ffffff" stroke-width="1"/><path d="M 240.10267942631577 134.0519335070971 L 280.05133971315786 132.02596675354854 A 40 40 0 0 1 282.48991471411676 116.10778988620721 L 244.97982942823353 102.21557977241444 A 80 80 0 0 0 240.10267942631577 134.0519335070971 Z" fill="#555555" opacity="0.9" stroke="#ffffff" stroke-width="1"/><path d="M 244.97982942823353 102.21557977241444 L 282.48991471411676 116.10778988620721 A 40 40 0 0 1 291.0082885108352 102.44132323697256 L 262.01657702167034 74.88264647394513 A 80 80 0 0 0 244.97982942823353 102.21557977241444 Z" fill="#f1e05a" opacity="0.9" stroke="#ffffff" stroke-width="1"/><path d="M 262.01657702167034 74.88264647394513 L 291.0082885108352 102.44132323697256 A 40 40 0 0 1 297.1492713962083 97.16946235170897 L 274.2985427924166 64.33892470341794 A 80 80 0 0 0 262.01657702167034 74.88264647394513 Z" fill="#cccccc" opacity="0.9" stroke="#ffffff" stroke-width="1"/><path d="M 274.2985427924166 64.33892470341794 L 297.1492713962083 97.16946235170897 A 40 40 0 0 1 304.2257657954673 93.24168753519078 L 288.4515315909345 56.483375070381555 A 80 80 0 0 0 274.2985427924166 64.33892470341794 Z" fill="#cccccc" opacity="0.9" stroke="#ffffff" stroke-width="1"/><path d="M 288.4515315909345 56.483375070381555 L 304.2257657954673 93.24168753519078 A 40 40 0 0 1 311.9480591964536 90.81880234990022 L 303.89611839290717 51.63760469980045 A 80 80 0 0 0 288.4515315909345 56.483375070381555 Z" fill="#007acc" opacity="0.9" stroke="#ffffff" stroke-width="1"/>
  </g>
  
  <!-- 图例 -->
  <g transform="translate(0,0)">
    <g transform="translate(10,100)">  <rect x="0" y="5" width="20" height="20" fill="#3572A5"/>  <text x="30" y="20" class="legend-text">Python</text></g><g transform="translate(10,130)">  <rect x="0" y="5" width="20" height="20" fill="#da5b0b"/>  <text x="30" y="20" class="legend-text">Jupyter Notebook</text></g><g transform="translate(10,160)">  <rect x="0" y="5" width="20" height="20" fill="#f34b7d"/>  <text x="30" y="20" class="legend-text">C++</text></g><g transform="translate(10,190)">  <rect x="0" y="5" width="20" height="20" fill="#555555"/>  <text x="30" y="20" class="legend-text">C</text></g><g transform="translate(10,220)">  <rect x="0" y="5" width="20" height="20" fill="#f1e05a"/>  <text x="30" y="20" class="legend-text">JavaScript</text></g><g transform="translate(10,250)">  <rect x="0" y="5" width="20" height="20" fill="#cccccc"/>  <text x="30" y="20" class="legend-text">GDScript</text></g><g transform="translate(10,280)">  <rect x="0" y="5" width="20" height="20" fill="#cccccc"/>  <text x="30" y="20" class="legend-text">CMake</text></g><g transform="translate(10,310)">  <rect x="0" y="5" width="20" height="20" fill="#007acc"/>  <text x="30" y="20" class="legend-text">TypeScript</text></g>
  </g>
  
  <!-- 更新时间 -->
  <text x="250" y="240" class="update-time" text-anchor="middle">
    Updated: 2026-02-21
  </text>
</svg>