<svg width="500" height="250" viewBox="0 0 500 250" xmlns="http://www.w3.org/2000/svg">
  <style>
    .title { font: 600 20px 'Segoe UI', Helvetica, Arial, sans-serif; fill: #0366d6; }
    .legend-text { font: 400 14px 'Segoe UI', Helvetica, Arial, sans-serif; fill: #24292e; }
    .update-time { font: 400 12px 'Segoe UI', Helvetica, Arial, sans-serif; fill: #6a737d; }
  </style>
  
  <!-- 标题 -->
  <text x="250" y="30" class="title" text-anchor="middle">Top Languages</text>
  
  <!-- 环形图 -->
  <g transform="translate(0,0)">
    <path d="M 320.0 50.0 L 320.0 90.0 A 40 40 0 0 1 332.3606797749979 168.04226065180615 L 344.7213595499958 206.0845213036123 A 80 80 0 0 0 320.0 50.0 Z" fill="#3572A5" opacity="0.9" stroke="#ffffff" stroke-width="1"/><path d="M 344.7213595499958 206.0845213036123 L 332.3606797749979 168.04226065180615 A 40 40 0 0 1 291.7157287525381 158.2842712474619 L 263.4314575050762 186.5685424949238 A 80 80 0 0 0 344.7213595499958 206.0845213036123 Z" fill="#da5b0b" opacity="0.9" stroke="#ffffff" stroke-width="1"/><path d="M 263.4314575050762 186.5685424949238 L 291.7157287525381 158.2842712474619 A 40 40 0 0 1 280.0 130.0 L 240.0 130.0 A 80 80 0 0 0 263.4314575050762 186.5685424949238 Z" fill="#f1e05a" opacity="0.9" stroke="#ffffff" stroke-width="1"/><path d="M 240.0 130.0 L 280.0 130.0 A 40 40 0 0 1 281.95773934819385 117.63932022500211 L 243.9154786963877 105.27864045000422 A 80 80 0 0 0 240.0 130.0 Z" fill="#f34b7d" opacity="0.9" stroke="#ffffff" stroke-width="1"/><path d="M 243.9154786963877 105.27864045000422 L 281.95773934819385 117.63932022500211 A 40 40 0 0 1 287.6393202250021 106.48858990830108 L 255.2786404500042 82.97717981660216 A 80 80 0 0 0 243.9154786963877 105.27864045000422 Z" fill="#555555" opacity="0.9" stroke="#ffffff" stroke-width="1"/><path d="M 255.2786404500042 82.97717981660216 L 287.6393202250021 106.48858990830108 A 40 40 0 0 1 296.4885899083011 97.63932022500211 L 272.97717981660213 65.27864045000422 A 80 80 0 0 0 255.2786404500042 82.97717981660216 Z" fill="#007acc" opacity="0.9" stroke="#ffffff" stroke-width="1"/><path d="M 272.97717981660213 65.27864045000422 L 296.4885899083011 97.63932022500211 A 40 40 0 0 1 307.6393202250021 91.95773934819385 L 295.2786404500042 53.91547869638772 A 80 80 0 0 0 272.97717981660213 65.27864045000422 Z" fill="#41b883" opacity="0.9" stroke="#ffffff" stroke-width="1"/><path d="M 295.2786404500042 53.91547869638772 L 307.6393202250021 91.95773934819385 A 40 40 0 0 1 313.7426213983908 90.4924663761945 L 307.4852427967815 50.984932752388985 A 80 80 0 0 0 295.2786404500042 53.91547869638772 Z" fill="#cccccc" opacity="0.9" stroke="#ffffff" stroke-width="1"/>
  </g>
  
  <!-- 图例 -->
  <g transform="translate(0,0)">
    <g transform="translate(10,100)">  <rect x="0" y="5" width="20" height="20" fill="#3572A5"/>  <text x="30" y="20" class="legend-text">Python</text></g><g transform="translate(10,130)">  <rect x="0" y="5" width="20" height="20" fill="#da5b0b"/>  <text x="30" y="20" class="legend-text">Jupyter Notebook</text></g><g transform="translate(10,160)">  <rect x="0" y="5" width="20" height="20" fill="#f1e05a"/>  <text x="30" y="20" class="legend-text">JavaScript</text></g><g transform="translate(10,190)">  <rect x="0" y="5" width="20" height="20" fill="#f34b7d"/>  <text x="30" y="20" class="legend-text">C++</text></g><g transform="translate(10,220)">  <rect x="0" y="5" width="20" height="20" fill="#555555"/>  <text x="30" y="20" class="legend-text">C</text></g><g transform="translate(10,250)">  <rect x="0" y="5" width="20" height="20" fill="#007acc"/>  <text x="30" y="20" class="legend-text">TypeScript</text></g><g transform="translate(10,280)">  <rect x="0" y="5" width="20" height="20" fill="#41b883"/>  <text x="30" y="20" class="legend-text">Vue</text></g><g transform="translate(10,310)">  <rect x="0" y="5" width="20" height="20" fill="#cccccc"/>  <text x="30" y="20" class="legend-text">GDScript</text></g>
  </g>
  
  <!-- 更新时间 -->
  <text x="250" y="240" class="update-time" text-anchor="middle">
    Updated: 2026-06-21
  </text>
</svg>