<svg width="500" height="250" viewBox="0 0 500 250" xmlns="http://www.w3.org/2000/svg">
  <style>
    .title { font: 600 20px 'Segoe UI', Helvetica, Arial, sans-serif; fill: #0366d6; }
    .legend-text { font: 400 14px 'Segoe UI', Helvetica, Arial, sans-serif; fill: #24292e; }
    .update-time { font: 400 12px 'Segoe UI', Helvetica, Arial, sans-serif; fill: #6a737d; }
  </style>
  
  <!-- 标题 -->
  <text x="250" y="30" class="title" text-anchor="middle">Top Languages</text>
  
  <!-- 环形图 -->
  <g transform="translate(0,0)">
    <path d="M 320.0 50.0 L 320.0 90.0 A 40 40 0 0 1 326.94592710667723 169.39231012048833 L 333.8918542133544 208.78462024097664 A 80 80 0 0 0 320.0 50.0 Z" fill="#3572A5" opacity="0.9" stroke="#ffffff" stroke-width="1"/><path d="M 333.8918542133544 208.78462024097664 L 326.94592710667723 169.39231012048833 A 40 40 0 0 1 285.3589838486225 150.0 L 250.7179676972449 170.0 A 80 80 0 0 0 333.8918542133544 208.78462024097664 Z" fill="#da5b0b" opacity="0.9" stroke="#ffffff" stroke-width="1"/><path d="M 250.7179676972449 170.0 L 285.3589838486225 150.0 A 40 40 0 0 1 280.0 130.0 L 240.0 130.0 A 80 80 0 0 0 250.7179676972449 170.0 Z" fill="#f1e05a" opacity="0.9" stroke="#ffffff" stroke-width="1"/><path d="M 240.0 130.0 L 280.0 130.0 A 40 40 0 0 1 282.4122951685637 116.31919426697326 L 244.82459033712732 102.63838853394651 A 80 80 0 0 0 240.0 130.0 Z" fill="#f34b7d" opacity="0.9" stroke="#ffffff" stroke-width="1"/><path d="M 244.82459033712732 102.63838853394651 L 282.4122951685637 116.31919426697326 A 40 40 0 0 1 289.3582222752409 104.28849561253843 L 258.71644455048175 78.57699122507685 A 80 80 0 0 0 244.82459033712732 102.63838853394651 Z" fill="#555555" opacity="0.9" stroke="#ffffff" stroke-width="1"/><path d="M 258.71644455048175 78.57699122507685 L 289.3582222752409 104.28849561253843 A 40 40 0 0 1 300.0 95.35898384862247 L 279.99999999999994 60.71796769724493 A 80 80 0 0 0 258.71644455048175 78.57699122507685 Z" fill="#41b883" opacity="0.9" stroke="#ffffff" stroke-width="1"/><path d="M 279.99999999999994 60.71796769724493 L 300.0 95.35898384862247 A 40 40 0 0 1 306.3191942669733 92.41229516856366 L 292.6383885339465 54.82459033712732 A 80 80 0 0 0 279.99999999999994 60.71796769724493 Z" fill="#cccccc" opacity="0.9" stroke="#ffffff" stroke-width="1"/><path d="M 292.6383885339465 54.82459033712732 L 306.3191942669733 92.41229516856366 A 40 40 0 0 1 313.05407289332277 90.60768987951168 L 306.1081457866456 51.215379759023364 A 80 80 0 0 0 292.6383885339465 54.82459033712732 Z" fill="#cccccc" opacity="0.9" stroke="#ffffff" stroke-width="1"/>
  </g>
  
  <!-- 图例 -->
  <g transform="translate(0,0)">
    <g transform="translate(10,100)">  <rect x="0" y="5" width="20" height="20" fill="#3572A5"/>  <text x="30" y="20" class="legend-text">Python</text></g><g transform="translate(10,130)">  <rect x="0" y="5" width="20" height="20" fill="#da5b0b"/>  <text x="30" y="20" class="legend-text">Jupyter Notebook</text></g><g transform="translate(10,160)">  <rect x="0" y="5" width="20" height="20" fill="#f1e05a"/>  <text x="30" y="20" class="legend-text">JavaScript</text></g><g transform="translate(10,190)">  <rect x="0" y="5" width="20" height="20" fill="#f34b7d"/>  <text x="30" y="20" class="legend-text">C++</text></g><g transform="translate(10,220)">  <rect x="0" y="5" width="20" height="20" fill="#555555"/>  <text x="30" y="20" class="legend-text">C</text></g><g transform="translate(10,250)">  <rect x="0" y="5" width="20" height="20" fill="#41b883"/>  <text x="30" y="20" class="legend-text">Vue</text></g><g transform="translate(10,280)">  <rect x="0" y="5" width="20" height="20" fill="#cccccc"/>  <text x="30" y="20" class="legend-text">GDScript</text></g><g transform="translate(10,310)">  <rect x="0" y="5" width="20" height="20" fill="#cccccc"/>  <text x="30" y="20" class="legend-text">CMake</text></g>
  </g>
  
  <!-- 更新时间 -->
  <text x="250" y="240" class="update-time" text-anchor="middle">
    Updated: 2026-04-29
  </text>
</svg>