<svg width="500" height="250" viewBox="0 0 500 250" xmlns="http://www.w3.org/2000/svg">
  <style>
    .title { font: 600 20px 'Segoe UI', Helvetica, Arial, sans-serif; fill: #0366d6; }
    .legend-text { font: 400 14px 'Segoe UI', Helvetica, Arial, sans-serif; fill: #24292e; }
    .update-time { font: 400 12px 'Segoe UI', Helvetica, Arial, sans-serif; fill: #6a737d; }
  </style>
  
  <!-- 标题 -->
  <text x="250" y="30" class="title" text-anchor="middle">Top Languages</text>
  
  <!-- 环形图 -->
  <g transform="translate(0,0)">
    <path d="M 320.0 50.0 L 320.0 90.0 A 40 40 0 0 1 329.5726265715023 168.83767269704208 L 339.1452531430046 207.67534539408416 A 80 80 0 0 0 320.0 50.0 Z" fill="#3572A5" opacity="0.9" stroke="#ffffff" stroke-width="1"/><path d="M 339.1452531430046 207.67534539408416 L 329.5726265715023 168.83767269704208 A 40 40 0 0 1 289.0158015268938 155.29781502381508 L 258.03160305378765 180.59563004763018 A 80 80 0 0 0 339.1452531430046 207.67534539408416 Z" fill="#da5b0b" opacity="0.9" stroke="#ffffff" stroke-width="1"/><path d="M 258.03160305378765 180.59563004763018 L 289.0158015268938 155.29781502381508 A 40 40 0 0 1 280.0324400731372 131.61063760437662 L 240.06488014627445 133.22127520875324 A 80 80 0 0 0 258.03160305378765 180.59563004763018 Z" fill="#f1e05a" opacity="0.9" stroke="#ffffff" stroke-width="1"/><path d="M 240.06488014627445 133.22127520875324 L 280.0324400731372 131.61063760437662 A 40 40 0 0 1 281.5792755347451 118.87130144334192 L 243.15855106949022 107.74260288668383 A 80 80 0 0 0 240.06488014627445 133.22127520875324 Z" fill="#f34b7d" opacity="0.9" stroke="#ffffff" stroke-width="1"/><path d="M 243.15855106949022 107.74260288668383 L 281.5792755347451 118.87130144334192 A 40 40 0 0 1 287.0806453642537 107.2774101307538 L 254.16129072850745 84.55482026150759 A 80 80 0 0 0 243.15855106949022 107.74260288668383 Z" fill="#555555" opacity="0.9" stroke="#ffffff" stroke-width="1"/><path d="M 254.16129072850745 84.55482026150759 L 287.0806453642537 107.2774101307538 A 40 40 0 0 1 295.9703094304808 98.02228946385998 L 271.94061886096165 66.04457892771995 A 80 80 0 0 0 254.16129072850745 84.55482026150759 Z" fill="#007acc" opacity="0.9" stroke="#ffffff" stroke-width="1"/><path d="M 271.94061886096165 66.04457892771995 L 295.9703094304808 98.02228946385998 A 40 40 0 0 1 307.3332802479411 92.05854232211419 L 294.66656049588215 54.11708464422837 A 80 80 0 0 0 271.94061886096165 66.04457892771995 Z" fill="#41b883" opacity="0.9" stroke="#ffffff" stroke-width="1"/><path d="M 294.66656049588215 54.11708464422837 L 307.3332802479411 92.05854232211419 A 40 40 0 0 1 313.58354876568956 90.51798949448349 L 307.16709753137906 51.03597898896699 A 80 80 0 0 0 294.66656049588215 54.11708464422837 Z" fill="#cccccc" opacity="0.9" stroke="#ffffff" stroke-width="1"/>
  </g>
  
  <!-- 图例 -->
  <g transform="translate(0,0)">
    <g transform="translate(10,100)">  <rect x="0" y="5" width="20" height="20" fill="#3572A5"/>  <text x="30" y="20" class="legend-text">Python</text></g><g transform="translate(10,130)">  <rect x="0" y="5" width="20" height="20" fill="#da5b0b"/>  <text x="30" y="20" class="legend-text">Jupyter Notebook</text></g><g transform="translate(10,160)">  <rect x="0" y="5" width="20" height="20" fill="#f1e05a"/>  <text x="30" y="20" class="legend-text">JavaScript</text></g><g transform="translate(10,190)">  <rect x="0" y="5" width="20" height="20" fill="#f34b7d"/>  <text x="30" y="20" class="legend-text">C++</text></g><g transform="translate(10,220)">  <rect x="0" y="5" width="20" height="20" fill="#555555"/>  <text x="30" y="20" class="legend-text">C</text></g><g transform="translate(10,250)">  <rect x="0" y="5" width="20" height="20" fill="#007acc"/>  <text x="30" y="20" class="legend-text">TypeScript</text></g><g transform="translate(10,280)">  <rect x="0" y="5" width="20" height="20" fill="#41b883"/>  <text x="30" y="20" class="legend-text">Vue</text></g><g transform="translate(10,310)">  <rect x="0" y="5" width="20" height="20" fill="#cccccc"/>  <text x="30" y="20" class="legend-text">GDScript</text></g>
  </g>
  
  <!-- 更新时间 -->
  <text x="250" y="240" class="update-time" text-anchor="middle">
    Updated: 2026-05-17
  </text>
</svg>