<svg width="500" height="250" viewBox="0 0 500 250" xmlns="http://www.w3.org/2000/svg">
  <style>
    .title { font: 600 20px 'Segoe UI', Helvetica, Arial, sans-serif; fill: #0366d6; }
    .legend-text { font: 400 14px 'Segoe UI', Helvetica, Arial, sans-serif; fill: #24292e; }
    .update-time { font: 400 12px 'Segoe UI', Helvetica, Arial, sans-serif; fill: #6a737d; }
  </style>
  
  <!-- 标题 -->
  <text x="250" y="30" class="title" text-anchor="middle">Top Languages</text>
  
  <!-- 环形图 -->
  <g transform="translate(0,0)">
    <path d="M 320.0 50.0 L 320.0 90.0 A 40 40 0 0 1 330.641473822667 168.55851442783413 L 341.282947645334 207.11702885566825 A 80 80 0 0 0 320.0 50.0 Z" fill="#3572A5" opacity="0.9" stroke="#ffffff" stroke-width="1"/><path d="M 341.282947645334 207.11702885566825 L 330.641473822667 168.55851442783413 A 40 40 0 0 1 286.6170698511479 152.0358792580841 L 253.23413970229578 174.0717585161682 A 80 80 0 0 0 341.282947645334 207.11702885566825 Z" fill="#da5b0b" opacity="0.9" stroke="#ffffff" stroke-width="1"/><path d="M 253.23413970229578 174.0717585161682 L 286.6170698511479 152.0358792580841 A 40 40 0 0 1 280.04027733834744 131.79459321402058 L 240.08055467669482 133.58918642804116 A 80 80 0 0 0 253.23413970229578 174.0717585161682 Z" fill="#f1e05a" opacity="0.9" stroke="#ffffff" stroke-width="1"/><path d="M 240.08055467669482 133.58918642804116 L 280.04027733834744 131.79459321402058 A 40 40 0 0 1 281.95773934819385 117.6393202250021 L 243.9154786963877 105.27864045000419 A 80 80 0 0 0 240.08055467669482 133.58918642804116 Z" fill="#f34b7d" opacity="0.9" stroke="#ffffff" stroke-width="1"/><path d="M 243.9154786963877 105.27864045000419 L 281.95773934819385 117.6393202250021 A 40 40 0 0 1 288.7267407012788 105.06040792565064 L 257.45348140255766 80.12081585130127 A 80 80 0 0 0 243.9154786963877 105.27864045000419 Z" fill="#555555" opacity="0.9" stroke="#ffffff" stroke-width="1"/><path d="M 257.45348140255766 80.12081585130127 L 288.7267407012788 105.06040792565064 A 40 40 0 0 1 299.4840289037638 95.66204825592534 L 278.96805780752754 61.324096511850684 A 80 80 0 0 0 257.45348140255766 80.12081585130127 Z" fill="#41b883" opacity="0.9" stroke="#ffffff" stroke-width="1"/><path d="M 278.96805780752754 61.324096511850684 L 299.4840289037638 95.66204825592534 A 40 40 0 0 1 305.94500703674635 92.5506051744105 L 291.89001407349264 55.10121034882101 A 80 80 0 0 0 278.96805780752754 61.324096511850684 Z" fill="#cccccc" opacity="0.9" stroke="#ffffff" stroke-width="1"/><path d="M 291.89001407349264 55.10121034882101 L 305.94500703674635 92.5506051744105 A 40 40 0 0 1 312.85772420805455 90.64281645605482 L 305.7154484161091 51.28563291210962 A 80 80 0 0 0 291.89001407349264 55.10121034882101 Z" fill="#cccccc" opacity="0.9" stroke="#ffffff" stroke-width="1"/>
  </g>
  
  <!-- 图例 -->
  <g transform="translate(0,0)">
    <g transform="translate(10,100)">  <rect x="0" y="5" width="20" height="20" fill="#3572A5"/>  <text x="30" y="20" class="legend-text">Python</text></g><g transform="translate(10,130)">  <rect x="0" y="5" width="20" height="20" fill="#da5b0b"/>  <text x="30" y="20" class="legend-text">Jupyter Notebook</text></g><g transform="translate(10,160)">  <rect x="0" y="5" width="20" height="20" fill="#f1e05a"/>  <text x="30" y="20" class="legend-text">JavaScript</text></g><g transform="translate(10,190)">  <rect x="0" y="5" width="20" height="20" fill="#f34b7d"/>  <text x="30" y="20" class="legend-text">C++</text></g><g transform="translate(10,220)">  <rect x="0" y="5" width="20" height="20" fill="#555555"/>  <text x="30" y="20" class="legend-text">C</text></g><g transform="translate(10,250)">  <rect x="0" y="5" width="20" height="20" fill="#41b883"/>  <text x="30" y="20" class="legend-text">Vue</text></g><g transform="translate(10,280)">  <rect x="0" y="5" width="20" height="20" fill="#cccccc"/>  <text x="30" y="20" class="legend-text">GDScript</text></g><g transform="translate(10,310)">  <rect x="0" y="5" width="20" height="20" fill="#cccccc"/>  <text x="30" y="20" class="legend-text">CMake</text></g>
  </g>
  
  <!-- 更新时间 -->
  <text x="250" y="240" class="update-time" text-anchor="middle">
    Updated: 2026-03-20
  </text>
</svg>