<svg width="400" height="304" viewBox="0 0 400 304" xmlns="http://www.w3.org/2000/svg">
  <style>
    .header { font: 600 18px sans-serif; fill: #0366d6; }
    .lang-name { font: 400 14px sans-serif; fill: #24292e; }
    .percent { font: 400 14px sans-serif; fill: #57606a; text-anchor: end; }
  </style>
  <text x="0" y="28" class="header">Most Used Languages</text>
  <g transform="translate(0,40)">
    
  <g transform="translate(0,50)">
    <text x="0" y="14" class="lang-name">Jupyter Notebook</text>
    <rect x="0" y="18" width="195.89678593261738" height="16" rx="3" fill="#da5b0b"/>
    <text x="330" y="30" class="percent">61.2%</text>
  </g>
  <g transform="translate(0,78)">
    <text x="0" y="14" class="lang-name">Python</text>
    <rect x="0" y="18" width="90.52020385173452" height="16" rx="3" fill="#3572A5"/>
    <text x="330" y="30" class="percent">28.3%</text>
  </g>
  <g transform="translate(0,106)">
    <text x="0" y="14" class="lang-name">C++</text>
    <rect x="0" y="18" width="21.40954069165503" height="16" rx="3" fill="#f34b7d"/>
    <text x="330" y="30" class="percent">6.7%</text>
  </g>
  <g transform="translate(0,134)">
    <text x="0" y="14" class="lang-name">JavaScript</text>
    <rect x="0" y="18" width="5.081291334305328" height="16" rx="3" fill="#f1e05a"/>
    <text x="330" y="30" class="percent">1.6%</text>
  </g>
  <g transform="translate(0,162)">
    <text x="0" y="14" class="lang-name">Vue</text>
    <rect x="0" y="18" width="2.5464932757221614" height="16" rx="3" fill="#cccccc"/>
    <text x="330" y="30" class="percent">0.8%</text>
  </g>
  <g transform="translate(0,190)">
    <text x="0" y="14" class="lang-name">TypeScript</text>
    <rect x="0" y="18" width="1.7308921365713301" height="16" rx="3" fill="#007acc"/>
    <text x="330" y="30" class="percent">0.5%</text>
  </g>
  <g transform="translate(0,218)">
    <text x="0" y="14" class="lang-name">C</text>
    <rect x="0" y="18" width="1.194940469969172" height="16" rx="3" fill="#555555"/>
    <text x="330" y="30" class="percent">0.4%</text>
  </g>
  <g transform="translate(0,246)">
    <text x="0" y="14" class="lang-name">GDScript</text>
    <rect x="0" y="18" width="1.134694997179365" height="16" rx="3" fill="#cccccc"/>
    <text x="330" y="30" class="percent">0.4%</text>
  </g>
  </g>
  <text x="0" y="299" class="update-time" font-size="12" fill="#6a737d">Updated: 2026-02-10</text>
</svg>