<svg width="500" height="250" viewBox="0 0 500 250" xmlns="http://www.w3.org/2000/svg">
  <style>
    .title { font: 600 20px 'Segoe UI', Helvetica, Arial, sans-serif; fill: #0366d6; }
    .legend-text { font: 400 14px 'Segoe UI', Helvetica, Arial, sans-serif; fill: #24292e; }
    .update-time { font: 400 12px 'Segoe UI', Helvetica, Arial, sans-serif; fill: #6a737d; }
  </style>
  
  <!-- 标题 -->
  <text x="250" y="30" class="title" text-anchor="middle">Top Languages</text>
  
  <!-- 环形图 -->
  <g transform="translate(0,0)">
    <path d="M 320.0 50.0 L 320.0 90.0 A 40 40 0 0 1 334.44966664748614 167.29888917617424 L 348.8993332949722 204.59777835234848 A 80 80 0 0 0 320.0 50.0 Z" fill="#3572A5" opacity="0.9" stroke="#ffffff" stroke-width="1"/><path d="M 348.8993332949722 204.59777835234848 L 334.44966664748614 167.29888917617424 A 40 40 0 0 1 288.07931090879043 154.10538545517025 L 256.15862181758087 178.2107709103405 A 80 80 0 0 0 348.8993332949722 204.59777835234848 Z" fill="#da5b0b" opacity="0.9" stroke="#ffffff" stroke-width="1"/><path d="M 256.15862181758087 178.2107709103405 L 288.07931090879043 154.10538545517025 A 40 40 0 0 1 280.1706329481986 133.69073437853208 L 240.34126589639723 137.38146875706414 A 80 80 0 0 0 256.15862181758087 178.2107709103405 Z" fill="#f1e05a" opacity="0.9" stroke="#ffffff" stroke-width="1"/><path d="M 240.34126589639723 137.38146875706414 L 280.1706329481986 133.69073437853208 A 40 40 0 0 1 281.52697427308726 119.05348039711667 L 243.05394854617447 108.10696079423334 A 80 80 0 0 0 240.34126589639723 137.38146875706414 Z" fill="#f34b7d" opacity="0.9" stroke="#ffffff" stroke-width="1"/><path d="M 243.05394854617447 108.10696079423334 L 281.52697427308726 119.05348039711667 A 40 40 0 0 1 288.07931090879043 105.89461454482972 L 256.15862181758087 81.78922908965944 A 80 80 0 0 0 243.05394854617447 108.10696079423334 Z" fill="#555555" opacity="0.9" stroke="#ffffff" stroke-width="1"/><path d="M 256.15862181758087 81.78922908965944 L 288.07931090879043 105.89461454482972 A 40 40 0 0 1 298.94271348490577 95.99131457081542 L 277.8854269698116 61.98262914163084 A 80 80 0 0 0 256.15862181758087 81.78922908965944 Z" fill="#41b883" opacity="0.9" stroke="#ffffff" stroke-width="1"/><path d="M 277.8854269698116 61.98262914163084 L 298.94271348490577 95.99131457081542 A 40 40 0 0 1 305.5503333525139 92.70111082382576 L 291.10066670502783 55.402221647651515 A 80 80 0 0 0 277.8854269698116 61.98262914163084 Z" fill="#cccccc" opacity="0.9" stroke="#ffffff" stroke-width="1"/><path d="M 291.10066670502783 55.402221647651515 L 305.5503333525139 92.70111082382576 A 40 40 0 0 1 312.6500192873372 90.68107601264393 L 305.3000385746744 51.362152025287855 A 80 80 0 0 0 291.10066670502783 55.402221647651515 Z" fill="#cccccc" opacity="0.9" stroke="#ffffff" stroke-width="1"/>
  </g>
  
  <!-- 图例 -->
  <g transform="translate(0,0)">
    <g transform="translate(10,100)">  <rect x="0" y="5" width="20" height="20" fill="#3572A5"/>  <text x="30" y="20" class="legend-text">Python</text></g><g transform="translate(10,130)">  <rect x="0" y="5" width="20" height="20" fill="#da5b0b"/>  <text x="30" y="20" class="legend-text">Jupyter Notebook</text></g><g transform="translate(10,160)">  <rect x="0" y="5" width="20" height="20" fill="#f1e05a"/>  <text x="30" y="20" class="legend-text">JavaScript</text></g><g transform="translate(10,190)">  <rect x="0" y="5" width="20" height="20" fill="#f34b7d"/>  <text x="30" y="20" class="legend-text">C++</text></g><g transform="translate(10,220)">  <rect x="0" y="5" width="20" height="20" fill="#555555"/>  <text x="30" y="20" class="legend-text">C</text></g><g transform="translate(10,250)">  <rect x="0" y="5" width="20" height="20" fill="#41b883"/>  <text x="30" y="20" class="legend-text">Vue</text></g><g transform="translate(10,280)">  <rect x="0" y="5" width="20" height="20" fill="#cccccc"/>  <text x="30" y="20" class="legend-text">GDScript</text></g><g transform="translate(10,310)">  <rect x="0" y="5" width="20" height="20" fill="#cccccc"/>  <text x="30" y="20" class="legend-text">CMake</text></g>
  </g>
  
  <!-- 更新时间 -->
  <text x="250" y="240" class="update-time" text-anchor="middle">
    Updated: 2026-02-24
  </text>
</svg>